<svg width="20" height="20" viewBox="0 0 20 20" fill="none" xmlns="http://www.w3.org/2000/svg">
<path d="M14.6957 2.05105e-06C13.728 0.000144056 12.7788 0.304964 11.951 0.881404C11.1232 1.45785 10.4485 2.28391 10 3.27C9.4489 2.06378 8.56249 1.10448 7.48211 0.545056C6.40173 -0.0143689 5.18958 -0.141705 4.03893 0.183351C2.88829 0.508407 1.86542 1.26714 1.1334 2.33857C0.401382 3.41 0.00237531 4.73243 0 6.095C0 9.46 1.81739 12.535 4.16522 15.06C5.97649 16.9058 7.92939 18.5593 10 20C12.0551 18.5327 14.0061 16.8809 15.8348 15.06C18.4435 12.32 20 9.46 20 6.095C20 5.29417 19.8628 4.5012 19.5961 3.76139C19.3295 3.02159 18.9387 2.34946 18.4461 1.78342C17.9535 1.21738 17.3687 0.768529 16.7252 0.46252C16.0817 0.156512 15.392 -0.000654904 14.6957 2.05105e-06Z" fill="#1CA677"/>
</svg>
